<?xml version="1.0" encoding="UTF-8" standalone="no"?>
<!-- Created with Inkscape (http://www.inkscape.org/) -->

<svg
   xmlns:dc="http://purl.org/dc/elements/1.1/"
   xmlns:cc="http://creativecommons.org/ns#"
   xmlns:rdf="http://www.w3.org/1999/02/22-rdf-syntax-ns#"
   xmlns:svg="http://www.w3.org/2000/svg"
   xmlns="http://www.w3.org/2000/svg"
   xmlns:sodipodi="http://sodipodi.sourceforge.net/DTD/sodipodi-0.dtd"
   xmlns:inkscape="http://www.inkscape.org/namespaces/inkscape"
   width="159.41888mm"
   height="166.60976mm"
   viewBox="0 0 159.41888 166.60976"
   version="1.1"
   id="svg8017"
   inkscape:version="0.92pre1_64bit r15016"
   sodipodi:docname="Transmission 3.svg">
  <defs
     id="defs8011" />
  <sodipodi:namedview
     id="base"
     pagecolor="#ffffff"
     bordercolor="#666666"
     borderopacity="1.0"
     inkscape:pageopacity="0.0"
     inkscape:pageshadow="2"
     inkscape:zoom="0.94012101"
     inkscape:cx="211.8366"
     inkscape:cy="314.85308"
     inkscape:document-units="mm"
     inkscape:current-layer="layer1"
     showgrid="false"
     fit-margin-top="10"
     fit-margin-left="10"
     fit-margin-right="10"
     fit-margin-bottom="10"
     inkscape:window-width="1366"
     inkscape:window-height="745"
     inkscape:window-x="-8"
     inkscape:window-y="-8"
     inkscape:window-maximized="1"
     inkscape:snap-global="false" />
  <metadata
     id="metadata8014">
    <rdf:RDF>
      <cc:Work
         rdf:about="">
        <dc:format>image/svg+xml</dc:format>
        <dc:type
           rdf:resource="http://purl.org/dc/dcmitype/StillImage" />
        <dc:title></dc:title>
        <cc:license
           rdf:resource="http://creativecommons.org/publicdomain/zero/1.0/" />
      </cc:Work>
      <cc:License
         rdf:about="http://creativecommons.org/publicdomain/zero/1.0/">
        <cc:permits
           rdf:resource="http://creativecommons.org/ns#Reproduction" />
        <cc:permits
           rdf:resource="http://creativecommons.org/ns#Distribution" />
        <cc:permits
           rdf:resource="http://creativecommons.org/ns#DerivativeWorks" />
      </cc:License>
    </rdf:RDF>
  </metadata>
  <g
     inkscape:label="Layer 1"
     inkscape:groupmode="layer"
     id="layer1"
     transform="translate(-19.19253,-4.296312)">
    <path
       inkscape:connector-curvature="0"
       id="path2788"
       style="fill:#ffffff;fill-opacity:1;fill-rule:nonzero;stroke:none;stroke-width:2.8578341"
       d="m 98.98771,87.559753 48.0916,-73.263441 H 50.738869 Z" />
    <path
       inkscape:connector-curvature="0"
       id="path2790"
       style="fill:#ffffff;fill-opacity:1;fill-rule:nonzero;stroke:none;stroke-width:2.8578341"
       d="m 98.98771,87.639775 48.0916,73.266295 H 50.738869 Z" />
    <g
       transform="matrix(2.8578343,0,0,2.8578343,-68.967215,-670.2115)"
       id="g2792">
      <path
         inkscape:connector-curvature="0"
         id="path2794"
         style="fill:none;stroke:#000000;stroke-width:1.50937808;stroke-linecap:butt;stroke-linejoin:miter;stroke-miterlimit:10;stroke-dasharray:none;stroke-opacity:1"
         d="m 51.751406,289.34122 6.937388,-22.03064 8.023655,22.03064" />
    </g>
    <g
       transform="matrix(3.8950699,0,0,3.8950699,-130.39912,-941.2292)"
       id="g2798">
      <path
         inkscape:connector-curvature="0"
         id="path2800"
         style="fill:none;stroke:#000000;stroke-width:1.10743904;stroke-linecap:butt;stroke-linejoin:bevel;stroke-miterlimit:10;stroke-dasharray:none;stroke-opacity:1"
         d="m 57.715,270.371 3.223,0.945 -4.735,3.219 6.434,1.703 -7.949,3.223 9.464,0.945" />
    </g>
    <path
       inkscape:connector-curvature="0"
       id="path590"
       style="fill:#d40000;fill-opacity:1;fill-rule:nonzero;stroke:none;stroke-width:1.49592388"
       d="m 65.045687,21.338808 c -0.69561,0.116696 -2.43686,0.631279 -3.89689,0.713555 -0.81827,0.589393 -2.3845,1.220676 -3.71138,1.431598 -1.2102,0.72403 -3.17884,2.213967 -5.13102,3.283552 -1.50041,1.566236 -2.71061,2.249871 -4.47581,4.143712 -0.94093,1.389711 -3.0442,3.090579 -4.02553,4.574534 -1.23862,1.923757 -2.2738,3.512428 -3.66352,4.879703 -0.94093,1.280512 -2.62385,3.202777 -3.33142,5.107087 -1.42561,1.787628 -1.89383,3.120496 -3.01578,5.306043 -1.0277,1.397192 -2.06737,3.938764 -2.68668,5.475079 -0.95889,2.231921 -1.82353,4.073402 -2.34411,5.639633 -0.33809,2.009027 -1.76968,3.884915 -1.95667,5.772773 -0.90653,2.197509 -1.43758,4.125757 -1.50789,5.907401 -0.12866,1.753225 -0.37396,4.113792 -0.98731,6.019599 -0.2992,1.658978 -0.74796,4.049465 -0.35751,6.088408 -0.37998,2.109255 0.50862,4.178119 0.36798,6.124316 -0.0643,2.272307 0.33958,4.353138 1.00527,6.053998 0.0763,2.167601 1.27452,3.739821 1.54379,5.941821 0.33809,1.64252 1.22067,4.27834 1.98659,5.7967 1.09202,1.75322 1.91029,3.72934 2.37702,5.66357 0.46224,1.86392 1.59017,3.35386 2.73006,5.49153 0.81827,2.19752 2.36655,3.75776 3.05019,5.32998 1.00526,1.39121 2.61188,3.5588 3.3778,5.12504 1.47198,1.4316 2.09728,3.55281 3.69792,4.89616 1.62457,1.95218 2.39048,2.97389 4.06741,4.59846 1.40767,1.95218 3.42418,2.83478 4.5177,4.14372 2.13169,1.67094 3.20128,2.73455 5.17141,3.27757 2.29624,1.3912 4.25889,1.98659 5.73686,1.89982 2.549057,0.66569 4.686731,-0.41586 5.551377,-1.30893 0.993291,-0.95889 0.496645,-3.71738 -0.981325,-5.70995 -0.543024,-1.2087 -2.553544,-3.02625 -3.850512,-4.64484 -1.2102,-1.59017 -3.0442,-2.44285 -4.30676,-4.3711 -1.50789,-1.71133 -2.78092,-3.29551 -4.08986,-4.58051 -0.98731,-1.19823 -2.32018,-3.39575 -3.85649,-4.76901 -1.23414,-1.18028 -2.12123,-2.98586 -3.61715,-4.96048 -1.52584,-1.55426 -2.61338,-3.57077 -3.32544,-5.16093 -1.42561,-1.85196 -1.71881,-3.75029 -2.97389,-5.36439 -1.18627,-1.51836 -2.00454,-4.01356 -2.54756,-5.5798 -0.38596,-1.94619 -1.0636,-3.926797 -2.02249,-5.790721 -0.50263,-1.59465 -1.25059,-4.300776 -1.33287,-5.989678 0.006,-2.261837 -0.84071,-3.896882 -0.48468,-6.112346 0.39194,-2.103266 0.12268,-4.44738 0.47421,-6.071955 0.1915,-2.377019 1.12643,-3.862475 1.30744,-5.941808 0.15855,-2.034458 1.47947,-4.172131 1.97013,-5.7623 0.77638,-2.284273 1.25059,-3.558801 2.50717,-5.557355 1.19674,-1.536315 1.68889,-3.937271 2.93949,-5.34045 0.71206,-1.968634 2.52961,-3.605175 3.28355,-5.13102 1.56623,-1.647011 1.96863,-3.370315 3.57077,-4.936546 1.00376,-1.970135 2.48324,-2.88115 3.80862,-4.751058 1.0292,-1.513875 3.06814,-2.939489 4.039,-4.564064 1.40766,-2.062877 3.27757,-3.470542 4.24244,-4.371087 0.71206,-0.846692 1.974617,-1.652998 2.682189,-3.026257 1.045653,-1.630553 1.367275,-2.09878 2.009024,-3.488491 0.204939,-1.566235 0.42634,-2.611883 0.03604,-3.914835 -0.731505,-1.332869 -1.917774,-1.127925 -3.570763,-1.485451 -0.35005,0.176528 0.22737,-0.33211 0,0 0.33957,0.210918 -0.12866,-0.373962 0,0 m 67.083213,0 c -1.45554,-0.23335 -2.63582,0.327614 -3.55282,1.501908 -0.2289,1.157845 -0.93495,2.215464 0.0584,3.904361 0.57294,0.706076 0.68364,2.290261 2.01052,3.488496 0.6597,0.583409 1.85794,2.30821 2.67621,3.020269 1.6126,1.087535 2.27829,2.718093 4.24244,4.371087 0.88708,1.285002 2.34861,3.190806 4.02553,4.570051 0.8467,1.495921 2.87517,3.255129 3.79815,4.75554 0.90055,1.829514 2.05092,3.015783 3.56479,4.938048 1.36728,1.958164 1.86991,3.558801 3.26112,5.131015 0.83472,1.391213 2.35457,3.319456 2.9335,5.346434 0.50711,1.851954 1.81605,3.273082 2.4937,5.545389 0.75993,2.296243 1.03519,3.711388 1.97014,5.762299 0.80631,2.272311 1.21469,4.276848 1.30294,5.935825 0.68365,2.145158 0.0704,4.009079 0.47272,6.071955 -0.374,2.179565 -0.48467,3.834056 -0.48467,6.106362 -0.18701,1.630558 -1.0696,4.248425 -1.32689,5.971732 -0.50712,1.56623 -0.917,4.125751 -2.00904,5.796701 -0.42183,1.6889 -1.4675,3.38977 -2.54306,5.57531 -0.55499,1.67693 -1.62906,3.88641 -2.96792,5.3584 -0.85865,1.4316 -1.83999,3.69942 -3.31945,5.15346 -1.08604,2.10925 -2.01501,3.51841 -3.60518,4.95599 -1.60662,1.44357 -2.94996,3.1205 -3.85051,4.76752 -1.39719,2.06287 -3.17883,3.12647 -4.07339,4.57603 -1.29099,1.44954 -2.81085,3.49447 -4.30079,4.37108 -1.3194,1.46601 -2.7166,2.89761 -3.84452,4.65682 -1.03967,2.43686 -1.99257,4.07938 -1.01125,5.70246 0.47421,1.02321 2.26782,2.07485 5.53941,1.34484 1.36279,0.0403 3.47803,-1.29099 5.73238,-1.89384 1.46152,-1.08605 3.23718,-1.45404 5.1714,-3.27757 1.73079,-1.47798 2.82281,-2.2035 4.52967,-4.14372 1.23263,-1.00975 2.35458,-2.75698 4.06592,-4.59248 0.85417,-1.47797 2.65975,-3.52889 3.69942,-4.89616 0.85267,-1.89982 2.65825,-3.47802 3.37181,-5.13102 0.74199,-1.97013 2.4608,-3.60518 3.05617,-5.32399 0.61333,-1.58867 1.80559,-4.01955 2.72259,-5.49303 1.15784,-1.60064 1.40916,-3.43016 2.37851,-5.65609 0.43232,-2.17358 1.43759,-4.2589 1.9866,-5.80867 0.73599,-1.60663 1.50789,-4.001597 1.54379,-5.941821 0.33211,-1.636538 1.16831,-4.009071 1.00376,-6.053998 0.036,-2.402453 0.74347,-3.973175 0.36353,-6.124316 0.25731,-1.706847 -0.13463,-4.441397 -0.35751,-6.088408 -0.0703,-1.636541 -0.76443,-4.342667 -0.98133,-6.019599 -0.80631,-2.056893 -0.58491,-4.148198 -1.51387,-5.907401 -0.94094,-1.787632 -1.38972,-4.236459 -1.95069,-5.778757 -0.81229,-1.519857 -1.53182,-3.389761 -2.33813,-5.633649 -0.48468,-1.700864 -2.00454,-3.997108 -2.69415,-5.469095 -0.61949,-1.630558 -1.65917,-3.34788 -3.02046,-5.312027 -0.78835,-2.044931 -1.79361,-3.458579 -3.32543,-5.107087 -1.16833,-1.326885 -2.62386,-3.699418 -3.65754,-4.879703 -0.97086,-1.799594 -2.29624,-3.148919 -4.03152,-4.574534 -1.74724,-1.250591 -3.40173,-2.84076 -4.48328,-4.143712 -2.07335,-1.156348 -3.62163,-2.173577 -5.12353,-3.283552 -0.9589,-0.572939 -2.30223,-0.812285 -3.70541,-1.431598 -1.5423,-0.870629 -3.21923,-0.724029 -3.90287,-0.713555 -0.29318,-0.273761 0.31566,0.234876 0,0 0.30366,-0.257309 -0.38596,0.116696 0,0 M 75.680208,41.820997 c -0.963376,-0.321635 -1.506399,0.531053 -2.670227,0.472713 -1.109976,0.02375 -1.594655,0.15257 -2.541573,0.976839 -1.688898,0.32613 -3.05019,2.26034 -5.066691,3.593208 -1.78763,1.284998 -2.85124,3.231196 -4.22449,4.586504 -1.64253,1.584181 -2.19153,3.518412 -3.65753,5.054727 -1.49593,1.636541 -1.79362,3.353862 -3.16239,5.382332 -1.33736,1.934232 -2.22593,3.850509 -2.65826,5.632157 -0.83472,1.531824 -1.11596,3.804131 -2.0913,5.878978 -0.57294,2.408437 -1.18028,4.429431 -1.40916,6.071956 -0.33809,1.69488 -0.549,4.564064 -0.53105,6.211074 -0.25133,2.354588 0.0643,3.780203 0.549,6.264933 -0.006,1.845971 0.46823,4.23047 1.45553,6.116831 0.95141,2.185541 0.93496,3.922311 2.14367,5.919371 0.60884,2.27979 1.43758,3.58274 2.71809,5.67404 0.6597,2.08083 2.32467,3.38378 3.21324,5.40627 1.05762,1.45404 2.24389,3.86846 3.71588,5.08315 1.82951,1.77118 2.68817,2.95744 4.284323,4.59847 1.542298,1.37326 3.283557,2.62385 5.135507,3.60069 1.642524,0.29768 2.448831,1.1743 3.932785,1.285 1.783141,0.0301 3.383778,0.35602 3.804135,-0.90504 0.438306,-1.26854 0.554989,-2.58944 -0.671669,-3.90436 -0.735996,-0.61333 -1.098009,-1.9462 -2.63582,-3.17884 -1.437581,-0.98132 -2.372533,-1.8699 -3.663515,-3.75177 -1.086042,-1.58269 -2.64629,-2.5356 -3.430156,-3.96121 -1.443564,-1.37924 -2.507166,-2.58346 -3.17285,-4.17213 -1.26256,-1.09951 -1.70685,-3.16089 -2.88714,-4.37708 -0.96936,-1.87588 -2.13767,-3.06215 -2.50567,-4.59847 -1.14588,-1.467501 -1.1758,-2.909571 -2.02249,-4.833328 -0.98132,-1.676931 -0.67765,-3.225213 -1.37924,-5.059213 0.0584,-1.795107 -0.66569,-3.834055 -0.5146,-5.207314 -0.39644,-1.711333 0,-3.096562 0.49665,-5.159439 0.18251,-1.308935 0.60884,-2.997833 1.33287,-5.008353 0.4383,-1.250592 1.48395,-2.927523 1.97462,-4.791444 0.39194,-1.729287 1.45553,-3.470546 2.46079,-4.564064 0.57294,-1.741258 1.98659,-3.341896 2.82281,-4.353141 1.132413,-1.845967 2.424891,-3.050186 3.124984,-4.142211 0.783866,-1.572218 2.151141,-2.39647 3.361342,-3.944751 1.208705,-1.109975 2.599917,-3.150416 3.587226,-3.751779 2.022486,-1.711338 3.062155,-2.979879 3.196789,-4.451867 0.560972,-1.905807 0.402415,-3.739812 -2.41442,-3.693439 -0.285719,0.273761 -0.384436,-0.08226 0,0 -0.267782,0.291698 0.228897,0.321635 0,0 m 45.894952,0.04028 c -2.79887,-0.128612 -3.61715,1.624596 -2.43088,3.68149 0.56097,1.694885 1.44955,3.237179 3.17286,4.46982 0.68962,1.234139 2.53708,2.004542 3.57077,3.739813 1.46002,1.174298 2.54756,2.706126 3.34788,3.950734 0.70757,1.513875 2.15113,2.284273 3.10852,4.142211 1.13392,1.742755 2.28577,2.682193 2.81683,4.342668 1.25658,1.379241 1.77716,2.605899 2.44284,4.55808 0.44429,1.822038 1.03967,3.301506 1.96864,4.785461 0.43232,1.268545 0.67765,3.522902 1.32689,5.00237 0.35004,1.308935 0.4039,3.810118 0.49066,5.147473 -0.39195,1.771174 -0.36201,3.114516 -0.50263,5.195347 0.0643,1.612604 -1.06361,3.663514 -1.37326,5.036772 -0.22737,1.845973 -1.53033,3.528893 -2.00903,4.815384 -0.73749,1.97462 -1.35082,2.79887 -2.4952,4.59249 -0.98282,1.12194 -1.6889,3.31944 -2.85871,4.36509 -1.43758,1.37925 -2.50567,2.88714 -3.16089,4.16017 -1.21469,1.05163 -2.36655,3.17285 -3.40622,3.9627 -1.57221,1.82802 -2.30821,3.01429 -3.64108,3.74579 -1.098,0.71805 -1.95068,1.80559 -2.62385,3.17884 -1.00526,2.02698 -1.5019,3.27159 -0.68962,3.90287 0.90653,0.97534 1.57222,1.60662 3.78768,0.917 1.40767,0.036 2.70463,-0.37396 3.91484,-1.29696 1.30295,-0.9933 3.03224,-2.21995 5.11905,-3.5992 1.07407,-1.05163 2.48922,-3.01578 4.27086,-4.59398 1.57821,-1.30894 2.36057,-3.61715 3.69942,-5.0652 1.02172,-1.3209 2.24388,-3.11451 3.20726,-5.40028 0.90653,-1.43759 1.71882,-3.35984 2.70613,-5.66207 0.43831,-1.79361 1.33287,-3.57077 2.13917,-5.895441 0.67167,-1.636536 1.23863,-4.447379 1.44207,-6.112344 -0.0344,-2.19751 0.2872,-4.493754 0.54451,-6.246978 -0.26329,-2.332144 -0.10626,-3.727842 -0.52656,-6.199109 0.0403,-2.17956 -0.43232,-3.910345 -1.40167,-6.065968 -0.19896,-1.899824 -0.92897,-4.107808 -2.08682,-5.872999 -0.83024,-2.32616 -1.38523,-4.073401 -2.64629,-5.627666 -1.22217,-2.196017 -1.6545,-3.657535 -3.14444,-5.374852 -0.9529,-1.489942 -2.10326,-3.769729 -3.64556,-5.048744 -1.49144,-1.362788 -2.83478,-2.899103 -4.21402,-4.582018 -1.85794,-1.268541 -3.72784,-3.219229 -5.04874,-3.605174 -0.83473,-0.806307 -1.59466,-0.379984 -2.52362,-0.975342 -0.81229,-0.64325 -1.88188,-0.07031 -2.64779,-0.468227 0.006,0.391942 0.18102,-0.350046 0,0 -0.26329,0.297677 0.25731,0.297677 0,0 M 84.416403,58.579751 c -0.846692,-0.08226 -0.625296,0 -1.652999,0.297677 -0.158549,0.379983 -0.916998,-0.04028 -1.578197,0.607346 -0.999279,0.888579 -2.21995,1.608118 -4.037498,3.126483 -0.68364,1.063602 -2.531103,2.314193 -3.219229,3.991124 -1.093523,1.712831 -2.145154,2.571494 -2.665737,4.383058 -0.385962,1.554264 -1.150365,2.875166 -2.097283,4.680743 -0.701589,1.232642 -1.495925,3.195297 -1.449552,4.920094 -0.747962,1.759208 -0.730013,3.780202 -0.55499,5.095116 0.309635,1.437585 0.192982,3.02177 0.584906,5.15346 0.08676,1.952181 0.671673,2.997833 1.507892,4.973947 0.911019,1.34334 1.751727,3.30151 2.179564,4.721141 0.706076,1.20422 1.670944,2.6762 2.740529,4.41147 1.395698,1.77118 1.816055,2.77644 3.307489,4.00908 1.723305,1.19824 2.529607,2.38899 4.113792,3.13246 2.318684,1.33736 4.650827,1.22068 4.801917,0.23335 0.474205,-1.26854 -0.261803,-2.92154 -2.061384,-4.37109 -1.513875,-0.91102 -3.092077,-2.52512 -4.423448,-4.769 -1.642524,-1.7233 -2.20948,-3.418187 -3.775711,-5.288091 -0.753946,-1.998557 -1.834005,-4.089857 -2.83328,-5.843082 -0.970856,-1.759208 -0.801816,-4.083871 -1.175799,-6.363662 0.391941,-2.14964 0.19896,-4.564064 1.117455,-6.275398 1.080059,-1.928247 1.267049,-4.073401 2.722584,-5.780253 1.220675,-2.312696 2.336633,-4.08387 3.663518,-5.252185 1.899825,-1.735275 2.77494,-3.705406 4.288815,-4.751058 1.385224,-1.121942 1.296964,-1.79361 1.97013,-2.7525 0.911019,-1.385224 -0.05835,-2.700139 -1.473484,-2.290256 0.05237,-0.39792 0.140612,-0.374004 0,0 0.281224,-0.287203 0.03604,-0.403899 0,0 m 28.470427,0.07629 c -1.47947,-0.409878 -2.22144,1.232642 -1.45553,2.296244 0.62529,1.033686 1.32688,1.630558 1.95218,2.7525 1.11596,0.712058 2.49969,2.366554 4.23645,4.74507 1.17431,1.162336 2.85124,3.136952 3.62762,5.235737 1.28649,2.137673 1.61859,3.838538 2.69416,5.748831 0.64325,2.436861 1.30295,3.798152 1.10399,6.246979 -0.13315,2.495204 -0.27974,3.892395 -1.16831,6.333746 -0.39195,1.789124 -1.65899,4.37707 -2.79888,5.808667 -1.46002,1.670954 -2.31419,4.079391 -3.73981,5.277621 -1.90431,1.71733 -3.32992,3.27757 -4.37109,4.75554 -1.71732,2.16909 -2.4952,3.87445 -2.06886,4.36511 0.2289,0.54452 2.06288,1.36129 4.76302,-0.22139 1.49592,-0.25133 3.01578,-1.78314 4.08986,-3.12648 1.48545,-1.03368 2.1272,-2.0913 3.28505,-3.99711 0.58939,-1.21469 2.00902,-3.20726 2.72258,-4.39952 0.81827,-1.899821 1.92226,-3.202771 2.17357,-4.71066 0.67766,-2.015006 0.97086,-3.645564 1.49593,-4.948517 0.66568,-1.998553 0.64923,-3.846017 0.5849,-5.137003 0.30964,-1.916277 -0.17504,-2.973896 -0.549,-5.072676 -0.5505,-1.986588 -0.81827,-2.897607 -1.44357,-4.902144 -0.62529,-2.004537 -1.1339,-3.528881 -2.08681,-4.662793 -1.20871,-1.606621 -2.10925,-2.967913 -2.64629,-4.371092 -1.35082,-1.765192 -2.32616,-3.202777 -3.20876,-3.973175 -1.01723,-1.467502 -2.54755,-2.261837 -4.00907,-3.132466 -0.917,-0.44429 -0.99928,-0.07031 -1.54828,-0.607347 -0.55499,0.187003 -0.83473,-0.484679 -1.63505,-0.303656 -0.38596,-0.122675 -0.15859,0.367984 0,0 0.33211,0.209434 -0.39194,-0.09426 0,0 M 90.745658,70.862772 c -0.590893,-0.192981 -0.94094,0.09274 -0.888579,0.169023 -0.655216,0.07031 -0.888579,0.373962 -0.846696,0.333594 -1.308931,0.297677 -2.426387,1.320901 -3.126479,2.762973 -0.830239,0.608839 -1.847468,2.52512 -2.296244,3.524395 -0.789849,1.588671 -1.053132,2.167594 -1.590168,3.886412 -0.444289,1.769677 -0.339572,3.032235 -0.649228,4.14221 0.299161,1.648512 0.421836,2.454814 0.707572,4.236458 0.291698,0.993296 1.226654,2.366554 1.700864,3.950735 0.502629,1.005262 1.765191,2.891627 2.412923,3.564787 0.735996,1.36728 2.67621,2.453314 3.24915,2.774941 1.343338,0.25731 2.764466,0.52058 2.652273,0.12267 -0.06882,-0.344057 0,-1.793611 -1.162336,-2.400951 -0.27974,-0.74348 -1.578197,-1.893845 -2.465279,-2.613384 -1.111472,-0.828742 -1.063602,-1.938717 -2.109254,-2.903589 -0.964873,-0.812286 -1.491435,-1.839984 -1.590168,-3.219225 -0.508613,-0.759929 -1.023212,-2.483234 -0.665686,-3.512433 -0.339573,-1.355304 0.601363,-2.173577 0.613329,-3.430152 0.747963,-0.987308 0.48468,-2.173577 1.477971,-3.172856 0.934956,-1.296965 0.970856,-2.225933 1.992571,-2.875166 0.864646,-1.495921 2.092801,-2.139171 2.332147,-2.605896 0.48468,-0.934952 1.302948,-1.033686 1.069585,-1.495925 0.384436,-1.121942 -0.391941,-1.332868 -0.818268,-1.238625 0.344067,0.209434 -0.35751,0.181023 0,0 0.367983,0.145107 0.227371,-0.321635 0,0 m 15.811922,0.08676 c -1.05762,-0.309635 -1.43759,0.363531 -0.80032,1.262562 0.49665,0.222876 0.83473,1.180281 1.04565,1.507891 0.83622,0.922986 1.54828,1.875888 2.28428,2.59393 0.70158,1.234138 1.24012,2.185547 1.95218,2.846743 0.87661,0.718046 1.19823,2.41891 1.45553,3.130969 0.63128,0.801816 0.75395,2.61338 0.59538,3.389766 0.14659,0.800319 -0.63128,2.243883 -0.65372,3.482508 -0.12866,1.397195 -0.83024,1.799598 -1.55427,3.184823 -0.86464,1.397195 -1.03518,1.82353 -2.07484,2.893116 -0.67167,1.425613 -2.11524,1.787633 -2.41891,2.605903 -0.91252,0.61333 -1.04116,1.968634 -1.16383,2.384501 0.34555,0.0808 1.0995,0.93495 2.61188,-0.1122 1.31492,-0.560967 2.08083,-1.811571 3.20278,-2.762981 0.45625,-1.133904 1.56623,-2.611879 2.37253,-3.552814 0.57294,-1.612604 0.86464,-2.553544 1.67693,-3.920819 0.25731,-1.759203 0.92299,-2.513149 0.69561,-4.202047 -0.19299,-1.700868 -0.43831,-2.394973 -0.63727,-4.095841 -0.187,-0.999275 -0.549,-2.740533 -1.56623,-3.850509 -1.08006,-1.298461 -1.82802,-2.344113 -2.25436,-3.494478 -0.71954,-1.519858 -2.2738,-1.94021 -3.0801,-2.7525 -0.29768,0.257308 -0.23933,-0.468222 -0.82426,-0.345551 -0.25133,0.263287 -0.65372,-0.583413 -0.86464,-0.192982 0.187,-0.350046 -0.39194,-0.104695 0,0 0.2917,-0.255781 -0.27974,0.287204 0,0 m -8.653929,8.07051 c -2.173577,0.04639 -3.050189,0.852679 -4.54611,2.314197 -1.531828,1.204219 -2.092797,3.225209 -1.829518,4.761523 -0.04635,1.566236 0.420352,3.862475 2.08083,5.044257 1.331376,0.911015 3.365829,2.383007 5.036777,2.115238 2.36057,0.05835 4.13773,-0.695606 5.06072,-2.110751 1.3553,-0.905032 1.71732,-2.979879 2.09728,-5.048744 0.0942,-2.3486 -0.44429,-3.902864 -2.10925,-5.012839 -1.57222,-0.999279 -3.46456,-2.185544 -5.04875,-2.062881 -0.227371,-0.379941 -0.04028,0.333593 -0.367983,-0.0059 -0.508616,0.09872 0.01781,0.285719 -0.373962,0.0059 0.24535,-0.309635 -0.281224,0.27974 0,0 -0.303656,0.251329 -0.379984,0.110717 0,0" />
  </g>
</svg>
